<svg width="100" height="100" viewBox="0 0 100 100" fill="none" xmlns="http://www.w3.org/2000/svg">
<path d="M49.9272 82.707C51.1535 82.7072 52.3371 83.1574 53.2535 83.9723C54.1699 84.7872 54.7554 85.9101 54.8989 87.128L54.9339 87.7138V95.0037C54.9313 96.2794 54.4417 97.506 53.5653 98.433C52.6889 99.3599 51.4916 99.9174 50.2181 99.9915C48.9445 100.066 47.6907 99.6508 46.7127 98.8318C45.7346 98.0128 45.1061 96.8513 44.9554 95.5845L44.9204 95.0037V87.7138C44.9204 86.3859 45.4479 85.1124 46.3868 84.1735C47.3258 83.2345 48.5993 82.707 49.9272 82.707V82.707ZM80.1481 73.0339L85.3051 78.1909C86.2165 79.1358 86.7203 80.4009 86.7079 81.7137C86.6956 83.0265 86.1682 84.2819 85.2392 85.2095C84.3102 86.1372 83.0541 86.6628 81.7413 86.6733C80.4285 86.6838 79.1641 86.1782 78.2205 85.2655L73.0685 80.1135C72.1565 79.1692 71.6518 77.9045 71.6632 76.5917C71.6746 75.279 72.2012 74.0232 73.1295 73.0949C74.0578 72.1666 75.3136 71.6401 76.6263 71.6287C77.9391 71.6173 79.2038 72.1219 80.1481 73.0339V73.0339ZM26.7758 73.0339C27.7144 73.9728 28.2417 75.2461 28.2417 76.5737C28.2417 77.9013 27.7144 79.1746 26.7758 80.1135L21.6288 85.2705C20.6894 86.21 19.4151 86.7378 18.0865 86.7378C16.7579 86.7378 15.4837 86.21 14.5442 85.2705C13.6048 84.331 13.077 83.0568 13.077 81.7282C13.077 80.3996 13.6048 79.1254 14.5442 78.1859L19.7012 73.0289C20.6401 72.0903 21.9134 71.563 23.241 71.563C24.5686 71.563 25.8419 72.0903 26.7808 73.0289L26.7758 73.0339ZM49.9923 22.3252C57.3288 22.3252 64.3649 25.2397 69.5526 30.4274C74.7403 35.6151 77.6547 42.6512 77.6547 49.9877C77.6547 57.3243 74.7403 64.3603 69.5526 69.548C64.3649 74.7358 57.3288 77.6502 49.9923 77.6502C42.6557 77.6502 35.6197 74.7358 30.4319 69.548C25.2442 64.3603 22.3298 57.3243 22.3298 49.9877C22.3298 42.6512 25.2442 35.6151 30.4319 30.4274C35.6197 25.2397 42.6557 22.3252 49.9923 22.3252V22.3252ZM46.1871 34.9824C45.2797 34.9824 44.403 35.311 43.7191 35.9075C43.0352 36.5039 42.5905 37.3278 42.4671 38.2268L42.432 38.7375V53.7778L42.4671 54.2885C42.5788 55.1011 42.9535 55.8548 43.534 56.4343C44.1144 57.0139 44.8687 57.3874 45.6814 57.4979L46.1871 57.5329H56.2007L56.7114 57.4979C57.5232 57.3864 58.2763 57.0124 58.8558 56.433C59.4352 55.8535 59.8092 55.1004 59.9207 54.2885L59.9558 53.7778L59.9207 53.2672C59.8092 52.4553 59.4352 51.7022 58.8558 51.1227C58.2763 50.5433 57.5232 50.1693 56.7114 50.0578L56.2007 50.0228H49.9422V38.7375L49.9121 38.2268C49.7886 37.3269 49.3431 36.5024 48.6582 35.9058C47.9733 35.3093 47.0954 34.9812 46.1871 34.9824ZM94.8881 45.0861C96.1642 45.0875 97.3916 45.5761 98.3196 46.4522C99.2475 47.3282 99.8059 48.5255 99.8807 49.7994C99.9555 51.0734 99.541 52.3278 98.7219 53.3064C97.9029 54.285 96.7411 54.9139 95.4739 55.0646L94.8881 55.0996H87.6032C86.3271 55.0982 85.0997 54.6096 84.1717 53.7335C83.2438 52.8575 82.6854 51.6602 82.6106 50.3863C82.5358 49.1123 82.9503 47.8579 83.7693 46.8793C84.5884 45.9007 85.7502 45.2718 87.0174 45.1211L87.6032 45.0861H94.8931H94.8881ZM12.2912 44.9459C13.5673 44.9473 14.7947 45.4359 15.7227 46.312C16.6506 47.188 17.209 48.3853 17.2838 49.6592C17.3586 50.9332 16.9441 52.1876 16.125 53.1662C15.306 54.1448 14.1442 54.7737 12.877 54.9244L12.2912 54.9594H4.9963C3.72059 54.9568 2.49402 54.4672 1.56704 53.5908C0.64006 52.7144 0.0825911 51.5171 0.00846565 50.2436C-0.0656598 48.97 0.34915 47.7162 1.16819 46.7382C1.98723 45.7601 3.14873 45.1316 4.41551 44.9809L4.9963 44.9459H12.2912ZM21.1532 14.3244L21.6288 14.74L26.7808 19.897C27.6788 20.798 28.2001 22.007 28.2389 23.2785C28.2778 24.5499 27.8312 25.7885 26.9898 26.7426C26.1485 27.6967 24.9756 28.2949 23.7093 28.4155C22.4429 28.5361 21.1782 28.1702 20.1719 27.3921L19.7012 26.9715L14.5442 21.8196C13.6463 20.9185 13.1249 19.7095 13.0861 18.4381C13.0473 17.1666 13.4939 15.928 14.3352 14.9739C15.1765 14.0198 16.3494 13.4217 17.6158 13.301C18.8821 13.1804 20.1469 13.5463 21.1532 14.3244ZM85.3051 14.74C86.1671 15.6021 86.685 16.7492 86.7615 17.9659C86.838 19.1827 86.4679 20.3856 85.7207 21.3489L85.3051 21.8196L80.1481 26.9765C79.2471 27.8745 78.0381 28.3958 76.7666 28.4347C75.4951 28.4735 74.2566 28.0269 73.3024 27.1856C72.3483 26.3443 71.7502 25.1713 71.6296 23.905C71.5089 22.6387 71.8748 21.3739 72.6529 20.3676L73.0685 19.8919L78.2255 14.735C79.1644 13.7963 80.4377 13.269 81.7653 13.269C83.0929 13.269 84.3662 13.7963 85.3051 14.735V14.74ZM49.9422 0C51.1685 0.000161772 52.3521 0.450391 53.2686 1.26529C54.185 2.08019 54.7704 3.20308 54.9139 4.42099L54.949 5.00678V12.2917C54.9591 13.5756 54.4756 14.8143 53.5984 15.7519C52.7212 16.6895 51.5174 17.2542 50.2356 17.3294C48.9539 17.4046 47.6922 16.9845 46.7114 16.156C45.7306 15.3274 45.1055 14.1537 44.9654 12.8774L44.9354 12.2917V5.00678C44.9354 3.6789 45.4629 2.40541 46.4019 1.46645C47.3408 0.527499 48.6143 0 49.9422 0V0Z" fill="white"/>
</svg>
