<svg width="80" height="100" viewBox="0 0 80 100" fill="none" xmlns="http://www.w3.org/2000/svg">
<path d="M9.91379 0H69.3966C72.0259 0 74.5475 1.05357 76.4067 2.92893C78.2659 4.8043 79.3103 7.34784 79.3103 10V90C79.3103 92.6522 78.2659 95.1957 76.4067 97.0711C74.5475 98.9464 72.0259 100 69.3966 100H9.91379C7.28449 100 4.76288 98.9464 2.90368 97.0711C1.04449 95.1957 0 92.6522 0 90V10C0 7.34784 1.04449 4.8043 2.90368 2.92893C4.76288 1.05357 7.28449 0 9.91379 0V0ZM9.91379 30V70H69.3966V30H9.91379Z" fill="white"/>
</svg>
