<svg width="253" height="252" viewBox="0 0 253 252" fill="none" xmlns="http://www.w3.org/2000/svg">
<path fill-rule="evenodd" clip-rule="evenodd" d="M21.9849 125.671C21.9849 67.863 68.8478 21 126.656 21C166.898 21 201.836 43.7094 219.354 77.0119L239.242 69.773C218.67 28.4172 175.982 0 126.656 0C57.2498 0 0.984863 56.265 0.984863 125.671C0.984863 135.849 2.19468 145.744 4.47835 155.22L24.3675 147.981C22.8069 140.792 21.9849 133.328 21.9849 125.671ZM35.3711 176.926L15.4122 184.19C36.461 224.121 78.3796 251.343 126.656 251.343C196.063 251.343 252.328 195.078 252.328 125.671C252.328 116.517 251.349 107.591 249.49 98.9928L229.531 106.257C230.711 112.548 231.328 119.038 231.328 125.671C231.328 183.48 184.465 230.343 126.656 230.343C87.4683 230.343 53.3103 208.807 35.3711 176.926Z" fill="#FF3366"/>
</svg>
