<svg width="87" height="100" viewBox="0 0 87 100" fill="none" xmlns="http://www.w3.org/2000/svg">
<path d="M17.2414 0C26.0099 0 30.3941 10.8 24.2365 17.1C18.0296 23.35 7.38916 18.9 7.38916 10C7.38916 7.34784 8.42716 4.8043 10.2748 2.92893C12.1225 1.05357 14.6284 0 17.2414 0V0ZM9.85222 25H24.6305C27.2435 25 29.7495 26.0536 31.5971 27.9289C33.4448 29.8043 34.4828 32.3478 34.4828 35V62.5H27.0936V100H7.38916V62.5H0V35C0 32.3478 1.038 29.8043 2.88565 27.9289C4.7333 26.0536 7.23925 25 9.85222 25V25ZM86.2069 30H56.6502V40H86.2069V30ZM86.2069 45H71.4286V55H86.2069V45ZM86.2069 0H56.6502V10H86.2069V0ZM86.2069 15H71.4286V25H86.2069V15ZM86.2069 60H56.6502V70H86.2069V60ZM86.2069 90H56.6502V100H86.2069V90ZM86.2069 75H71.4286V85H86.2069" fill="white"/>
</svg>
