<svg width="172" height="172" viewBox="0 0 172 172" fill="none" xmlns="http://www.w3.org/2000/svg">
<path fill-rule="evenodd" clip-rule="evenodd" d="M151.467 85.7337C151.467 122.037 122.037 151.467 85.7337 151.467C70.5807 151.467 56.6251 146.34 45.5074 137.726L30.2274 151.076C45.1841 163.794 64.5628 171.467 85.7337 171.467C133.083 171.467 171.467 133.083 171.467 85.7337C171.467 68.704 166.502 52.834 157.941 39.4924L142.66 52.8433C148.261 62.5172 151.467 73.751 151.467 85.7337ZM144.432 23.2453L129.275 36.488C117.68 26.2279 102.434 20 85.7337 20C49.43 20 20 49.43 20 85.7337C20 99.2573 24.0838 111.827 31.0856 122.277L15.9285 135.52C5.90054 121.485 0 104.298 0 85.7337C0 38.3843 38.3843 0 85.7337 0C108.444 0 129.093 8.83052 144.432 23.2453Z" fill="#FF3366"/>
</svg>
