<svg width="100" height="100" viewBox="0 0 100 100" fill="none" xmlns="http://www.w3.org/2000/svg">
<path d="M87.5 12.5H82.4258C85.6328 18.0234 87.5 24.416 87.5 31.25C87.5 51.9277 70.6777 68.75 50 68.75C29.3223 68.75 12.5 51.9277 12.5 31.25C12.5 24.416 14.3672 18.0234 17.5742 12.5H12.5C5.60742 12.5 0 18.1074 0 25V87.5C0 94.3926 5.60742 100 12.5 100H87.5C94.3926 100 100 94.3926 100 87.5V25C100 18.1074 94.3926 12.5 87.5 12.5ZM50 62.5C67.2598 62.5 81.25 48.5098 81.25 31.25C81.25 13.9902 67.2598 0 50 0C32.7402 0 18.75 13.9902 18.75 31.25C18.75 48.5098 32.7402 62.5 50 62.5ZM49.9414 32.8242L56.5 17.5195C57.1836 15.9238 59.0273 15.1914 60.6074 15.877C62.1934 16.5566 62.9277 18.3945 62.25 19.9785L55.6738 35.3203C56.9785 36.7187 57.8125 38.5645 57.8125 40.625C57.8125 44.9395 54.3145 48.4375 50 48.4375C45.6855 48.4375 42.1875 44.9395 42.1875 40.625C42.1875 36.332 45.6562 32.8574 49.9414 32.8242Z" fill="white"/>
</svg>
